<?xml version="1.0" encoding="utf-8"?>
<!-- Generator: Adobe Illustrator 19.0.0, SVG Export Plug-In . SVG Version: 6.00 Build 0)  -->
<svg version="1.1" id="Layer_1" xmlns="http://www.w3.org/2000/svg" xmlns:xlink="http://www.w3.org/1999/xlink" x="0px" y="0px"
	 viewBox="0 0 24 24" style="enable-background:new 0 0 24 24;" xml:space="preserve">
<rect x="-1248.4" y="-0.2" style="fill:#FFFFFF;" width="840.9" height="816.7"/>
<rect x="-1247.7" y="-933.6" style="fill:#223042;" width="840.9" height="816.7"/>
<g>
	<path style="fill:#FFFFFF;" d="M-945-493.6h-14.8l-8.8-27.9h-0.2l-8.6,27.9h-14.9l-15.5-44.8h15.9l7.7,28.3h0.3l8-28.3h14.8
		l8.3,28.3h0.2l7.8-28.3h15.3L-945-493.6z"/>
	<path style="fill:#FFFFFF;" d="M-876.2-516.2c0,3.7-0.7,7-2,9.9c-1.3,3-3.1,5.5-5.4,7.6c-2.3,2.1-4.9,3.7-7.9,4.8
		c-3,1.1-6.2,1.7-9.6,1.7c-3.4,0-6.6-0.6-9.6-1.7c-3-1.1-5.7-2.7-7.9-4.8s-4-4.6-5.4-7.6c-1.3-3-2-6.3-2-9.9c0-3.7,0.7-7,2-9.9
		c1.3-2.9,3.1-5.4,5.4-7.5c2.3-2,4.9-3.6,7.9-4.7c3-1.1,6.2-1.6,9.6-1.6c3.4,0,6.6,0.5,9.6,1.6c3,1.1,5.6,2.6,7.9,4.7
		c2.3,2,4.1,4.5,5.4,7.5C-876.9-523.1-876.2-519.8-876.2-516.2z M-890.4-516.2c0-1.4-0.2-2.8-0.7-4.2c-0.5-1.4-1.2-2.6-2.1-3.6
		c-0.9-1-2-1.9-3.3-2.6c-1.3-0.7-2.9-1-4.6-1c-1.7,0-3.3,0.3-4.6,1c-1.3,0.7-2.4,1.5-3.3,2.6c-0.9,1.1-1.5,2.3-2,3.6
		c-0.5,1.4-0.7,2.8-0.7,4.2s0.2,2.9,0.7,4.2c0.4,1.4,1.1,2.6,2,3.7c0.9,1.1,2,2,3.3,2.7c1.3,0.7,2.8,1,4.6,1c1.7,0,3.3-0.3,4.6-1
		c1.3-0.7,2.4-1.5,3.3-2.7c0.9-1.1,1.6-2.4,2-3.7C-890.6-513.3-890.4-514.7-890.4-516.2z"/>
	<path style="fill:#FFFFFF;" d="M-819.3-516.2c0,3.7-0.7,7-2,9.9c-1.3,3-3.1,5.5-5.4,7.6c-2.3,2.1-4.9,3.7-7.9,4.8
		c-3,1.1-6.2,1.7-9.6,1.7c-3.4,0-6.6-0.6-9.6-1.7c-3-1.1-5.7-2.7-7.9-4.8s-4-4.6-5.4-7.6c-1.3-3-2-6.3-2-9.9c0-3.7,0.7-7,2-9.9
		c1.3-2.9,3.1-5.4,5.4-7.5c2.3-2,4.9-3.6,7.9-4.7c3-1.1,6.2-1.6,9.6-1.6c3.4,0,6.6,0.5,9.6,1.6c3,1.1,5.6,2.6,7.9,4.7
		c2.3,2,4.1,4.5,5.4,7.5C-820-523.1-819.3-519.8-819.3-516.2z M-833.5-516.2c0-1.4-0.2-2.8-0.7-4.2c-0.5-1.4-1.2-2.6-2.1-3.6
		c-0.9-1-2-1.9-3.3-2.6c-1.3-0.7-2.9-1-4.6-1s-3.3,0.3-4.6,1c-1.3,0.7-2.4,1.5-3.3,2.6c-0.9,1.1-1.5,2.3-2,3.6
		c-0.5,1.4-0.7,2.8-0.7,4.2s0.2,2.9,0.7,4.2c0.5,1.4,1.1,2.6,2,3.7c0.9,1.1,2,2,3.3,2.7c1.3,0.7,2.8,1,4.6,1c1.7,0,3.3-0.3,4.6-1
		c1.3-0.7,2.4-1.5,3.3-2.7c0.9-1.1,1.6-2.4,2-3.7C-833.8-513.3-833.5-514.7-833.5-516.2z"/>
	<path style="fill:#1BC489;" d="M-778.6-525.4c-0.9-1.4-2.3-2.5-4-3.5c-1.8-0.9-3.7-1.4-5.8-1.4c-2.2,0-4.2,0.4-5.9,1.3
		c-1.7,0.8-3.2,2-4.4,3.4c-1.2,1.4-2.1,3-2.7,4.9c-0.6,1.9-0.9,3.8-0.9,5.9c0,2,0.3,4,0.9,5.9c0.6,1.9,1.5,3.5,2.7,4.9
		c1.2,1.4,2.7,2.5,4.4,3.4c1.7,0.8,3.7,1.3,5.9,1.3c2.2,0,4.1-0.4,5.9-1.3c1.8-0.8,3.2-2,4.4-3.4l5.7,5.1c-1.8,2.1-4,3.7-6.8,4.9
		s-5.8,1.8-9.2,1.8c-3.3,0-6.3-0.5-9.1-1.6c-2.8-1.1-5.2-2.6-7.2-4.5c-2-1.9-3.6-4.3-4.8-7.1c-1.2-2.8-1.8-5.9-1.8-9.3
		c0-3.4,0.6-6.4,1.7-9.2c1.1-2.8,2.7-5.1,4.8-7.1c2-2,4.5-3.5,7.2-4.6s5.8-1.6,9-1.6c3,0,6,0.6,9,1.8c3,1.2,5.3,2.9,7.1,5.2
		L-778.6-525.4z"/>
	<path style="fill:#1BC489;" d="M-755.3-493.6h-8.5v-68h8.5V-493.6z"/>
	<path style="fill:#1BC489;" d="M-714-521.2c0-3.2-1-5.5-2.9-7.1c-1.9-1.5-4.5-2.3-7.7-2.3c-2.4,0-4.7,0.5-6.8,1.4
		c-2.1,0.9-3.9,2.1-5.4,3.6l-4.5-5.4c2.1-2,4.7-3.5,7.7-4.7c3-1.1,6.3-1.7,9.8-1.7c3.1,0,5.7,0.4,8,1.3c2.3,0.9,4.1,2.1,5.5,3.6
		c1.4,1.5,2.5,3.3,3.2,5.3c0.7,2,1.1,4.2,1.1,6.6v18.6c0,1.4,0,3,0.1,4.5c0.1,1.6,0.3,2.9,0.5,3.9h-7.7c-0.5-2-0.7-4.1-0.7-6.1h-0.3
		c-1.6,2.3-3.5,4.1-5.9,5.3c-2.4,1.3-5.2,1.9-8.4,1.9c-1.7,0-3.4-0.2-5.3-0.7c-1.8-0.4-3.5-1.2-5-2.2c-1.5-1-2.7-2.4-3.7-4.1
		c-1-1.7-1.5-3.7-1.5-6.2c0-3.2,0.9-5.8,2.6-7.7c1.7-1.9,4-3.3,6.8-4.3c2.8-1,6-1.6,9.5-1.9c3.5-0.3,7.1-0.5,10.7-0.5V-521.2z
		 M-716.1-513.9c-2.1,0-4.3,0.1-6.5,0.3c-2.3,0.2-4.3,0.5-6.1,1.1c-1.8,0.5-3.3,1.4-4.5,2.4c-1.2,1.1-1.8,2.5-1.8,4.3
		c0,1.3,0.3,2.3,0.8,3.2c0.5,0.8,1.2,1.5,2,2.1c0.8,0.5,1.8,0.9,2.8,1.1c1,0.2,2.1,0.3,3.1,0.3c4,0,7-1.2,9.1-3.6
		c2.1-2.4,3.2-5.4,3.2-9v-2.3H-716.1z"/>
	<path style="fill:#1BC489;" d="M-683.3-472h-8.5v-64.3h8.3v6.7h0.3c1.4-2.3,3.4-4.2,6.1-5.6c2.7-1.5,5.8-2.2,9.3-2.2
		c3.2,0,6.1,0.6,8.7,1.7c2.6,1.1,4.8,2.7,6.7,4.8c1.9,2,3.3,4.4,4.4,7.2c1,2.7,1.5,5.7,1.5,8.8c0,3.1-0.5,6.1-1.5,8.8
		c-1,2.8-2.5,5.2-4.3,7.2c-1.9,2-4.1,3.6-6.7,4.8c-2.6,1.2-5.6,1.8-8.9,1.8c-3.1,0-5.9-0.7-8.6-2c-2.7-1.3-4.8-3.2-6.4-5.6h-0.3
		V-472z M-655.3-515c0-2-0.3-3.9-0.9-5.8c-0.6-1.9-1.5-3.5-2.7-4.9c-1.2-1.4-2.7-2.6-4.5-3.4c-1.8-0.8-3.8-1.3-6.2-1.3
		c-2.2,0-4.1,0.4-5.9,1.3c-1.8,0.8-3.3,2-4.5,3.4s-2.2,3.1-2.9,4.9c-0.7,1.9-1,3.8-1,5.9c0,2,0.3,4,1,5.9c0.7,1.9,1.7,3.5,2.9,4.9
		c1.3,1.4,2.8,2.5,4.5,3.4c1.8,0.8,3.7,1.3,5.9,1.3c2.3,0,4.4-0.4,6.2-1.3c1.8-0.9,3.3-2,4.5-3.5c1.2-1.4,2.1-3.1,2.7-5
		C-655.6-511.1-655.3-513-655.3-515z"/>
</g>
<g>
	<path style="fill:#223042;" d="M-945.7,431.4h-14.8l-8.8-27.9h-0.2l-8.6,27.9h-14.9l-15.5-44.8h15.9l7.7,28.3h0.3l8-28.3h14.8
		l8.3,28.3h0.2l7.8-28.3h15.3L-945.7,431.4z"/>
	<path style="fill:#223042;" d="M-876.9,408.8c0,3.7-0.7,7-2,9.9c-1.3,3-3.1,5.5-5.4,7.6c-2.3,2.1-4.9,3.7-7.9,4.8
		c-3,1.1-6.2,1.7-9.6,1.7c-3.4,0-6.6-0.6-9.6-1.7c-3-1.1-5.7-2.7-7.9-4.8s-4-4.6-5.4-7.6c-1.3-3-2-6.3-2-9.9c0-3.7,0.7-7,2-9.9
		c1.3-2.9,3.1-5.4,5.4-7.5c2.3-2,4.9-3.6,7.9-4.7c3-1.1,6.2-1.6,9.6-1.6c3.4,0,6.6,0.5,9.6,1.6c3,1.1,5.6,2.6,7.9,4.7
		c2.3,2,4.1,4.5,5.4,7.5C-877.5,401.9-876.9,405.2-876.9,408.8z M-891.1,408.8c0-1.4-0.2-2.8-0.7-4.2c-0.5-1.4-1.2-2.6-2.1-3.6
		c-0.9-1-2-1.9-3.3-2.6c-1.3-0.7-2.9-1-4.6-1c-1.7,0-3.3,0.3-4.6,1c-1.3,0.7-2.4,1.5-3.3,2.6c-0.9,1.1-1.5,2.3-2,3.6
		c-0.5,1.4-0.7,2.8-0.7,4.2s0.2,2.9,0.7,4.2c0.4,1.4,1.1,2.6,2,3.7c0.9,1.1,2,2,3.3,2.7c1.3,0.7,2.8,1,4.6,1c1.7,0,3.3-0.3,4.6-1
		c1.3-0.7,2.4-1.5,3.3-2.7c0.9-1.1,1.6-2.4,2-3.7C-891.3,411.7-891.1,410.3-891.1,408.8z"/>
	<path style="fill:#223042;" d="M-820,408.8c0,3.7-0.7,7-2,9.9c-1.3,3-3.1,5.5-5.4,7.6c-2.3,2.1-4.9,3.7-7.9,4.8
		c-3,1.1-6.2,1.7-9.6,1.7c-3.4,0-6.6-0.6-9.6-1.7c-3-1.1-5.7-2.7-7.9-4.8s-4-4.6-5.4-7.6c-1.3-3-2-6.3-2-9.9c0-3.7,0.7-7,2-9.9
		c1.3-2.9,3.1-5.4,5.4-7.5c2.3-2,4.9-3.6,7.9-4.7c3-1.1,6.2-1.6,9.6-1.6c3.4,0,6.6,0.5,9.6,1.6c3,1.1,5.6,2.6,7.9,4.7
		c2.3,2,4.1,4.5,5.4,7.5C-820.7,401.9-820,405.2-820,408.8z M-834.2,408.8c0-1.4-0.2-2.8-0.7-4.2c-0.5-1.4-1.2-2.6-2.1-3.6
		c-0.9-1-2-1.9-3.3-2.6c-1.3-0.7-2.9-1-4.6-1s-3.3,0.3-4.6,1c-1.3,0.7-2.4,1.5-3.3,2.6c-0.9,1.1-1.5,2.3-2,3.6
		c-0.5,1.4-0.7,2.8-0.7,4.2s0.2,2.9,0.7,4.2c0.5,1.4,1.1,2.6,2,3.7c0.9,1.1,2,2,3.3,2.7c1.3,0.7,2.8,1,4.6,1c1.7,0,3.3-0.3,4.6-1
		c1.3-0.7,2.4-1.5,3.3-2.7c0.9-1.1,1.6-2.4,2-3.7C-834.4,411.7-834.2,410.3-834.2,408.8z"/>
	<path style="fill:#1BC489;" d="M-779.2,399.6c-0.9-1.4-2.3-2.5-4-3.5c-1.8-0.9-3.7-1.4-5.8-1.4c-2.2,0-4.2,0.4-5.9,1.3
		c-1.7,0.8-3.2,2-4.4,3.4c-1.2,1.4-2.1,3-2.7,4.9c-0.6,1.9-0.9,3.8-0.9,5.9c0,2,0.3,4,0.9,5.9c0.6,1.9,1.5,3.5,2.7,4.9
		c1.2,1.4,2.7,2.5,4.4,3.4c1.7,0.8,3.7,1.3,5.9,1.3c2.2,0,4.1-0.4,5.9-1.3c1.8-0.8,3.2-2,4.4-3.4l5.7,5.1c-1.8,2.1-4,3.7-6.8,4.9
		s-5.8,1.8-9.2,1.8c-3.3,0-6.3-0.5-9.1-1.6c-2.8-1.1-5.2-2.6-7.2-4.5c-2-1.9-3.6-4.3-4.8-7.1c-1.2-2.8-1.8-5.9-1.8-9.3
		c0-3.4,0.6-6.4,1.7-9.2c1.1-2.8,2.7-5.1,4.8-7.1c2-2,4.5-3.5,7.2-4.6s5.8-1.6,9-1.6c3,0,6,0.6,9,1.8c3,1.2,5.3,2.9,7.1,5.2
		L-779.2,399.6z"/>
	<path style="fill:#1BC489;" d="M-756,431.4h-8.5v-68h8.5V431.4z"/>
	<path style="fill:#1BC489;" d="M-714.7,403.8c0-3.2-1-5.5-2.9-7.1c-1.9-1.5-4.5-2.3-7.7-2.3c-2.4,0-4.7,0.5-6.8,1.4
		c-2.1,0.9-3.9,2.1-5.4,3.6l-4.5-5.4c2.1-2,4.7-3.5,7.7-4.7c3-1.1,6.3-1.7,9.8-1.7c3.1,0,5.7,0.4,8,1.3c2.3,0.9,4.1,2.1,5.5,3.6
		c1.4,1.5,2.5,3.3,3.2,5.3c0.7,2,1.1,4.2,1.1,6.6v18.6c0,1.4,0,3,0.1,4.5c0.1,1.6,0.3,2.9,0.5,3.9h-7.7c-0.5-2-0.7-4.1-0.7-6.1h-0.3
		c-1.6,2.3-3.5,4.1-5.9,5.3c-2.4,1.3-5.2,1.9-8.4,1.9c-1.7,0-3.4-0.2-5.3-0.7c-1.8-0.4-3.5-1.2-5-2.2c-1.5-1-2.7-2.4-3.7-4.1
		c-1-1.7-1.5-3.7-1.5-6.2c0-3.2,0.9-5.8,2.6-7.7c1.7-1.9,4-3.3,6.8-4.3c2.8-1,6-1.6,9.5-1.9c3.5-0.3,7.1-0.5,10.7-0.5V403.8z
		 M-716.8,411.1c-2.1,0-4.3,0.1-6.5,0.3c-2.3,0.2-4.3,0.5-6.1,1.1c-1.8,0.5-3.3,1.4-4.5,2.4c-1.2,1.1-1.8,2.5-1.8,4.3
		c0,1.3,0.3,2.3,0.8,3.2c0.5,0.8,1.2,1.5,2,2.1c0.8,0.5,1.8,0.9,2.8,1.1c1,0.2,2.1,0.3,3.1,0.3c4,0,7-1.2,9.1-3.6
		c2.1-2.4,3.2-5.4,3.2-9v-2.3H-716.8z"/>
	<path style="fill:#1BC489;" d="M-684,453h-8.5v-64.3h8.3v6.7h0.3c1.4-2.3,3.4-4.2,6.1-5.6c2.7-1.5,5.8-2.2,9.3-2.2
		c3.2,0,6.1,0.6,8.7,1.7c2.6,1.1,4.8,2.7,6.7,4.8c1.9,2,3.3,4.4,4.4,7.2c1,2.7,1.5,5.7,1.5,8.8c0,3.1-0.5,6.1-1.5,8.8
		c-1,2.8-2.5,5.2-4.3,7.2c-1.9,2-4.1,3.6-6.7,4.8c-2.6,1.2-5.6,1.8-8.9,1.8c-3.1,0-5.9-0.7-8.6-2c-2.7-1.3-4.8-3.2-6.4-5.6h-0.3V453
		z M-655.9,410c0-2-0.3-3.9-0.9-5.8c-0.6-1.9-1.5-3.5-2.7-4.9c-1.2-1.4-2.7-2.6-4.5-3.4c-1.8-0.8-3.8-1.3-6.2-1.3
		c-2.2,0-4.1,0.4-5.9,1.3c-1.8,0.8-3.3,2-4.5,3.4s-2.2,3.1-2.9,4.9c-0.7,1.9-1,3.8-1,5.9c0,2,0.3,4,1,5.9c0.7,1.9,1.7,3.5,2.9,4.9
		c1.3,1.4,2.8,2.5,4.5,3.4c1.8,0.8,3.7,1.3,5.9,1.3c2.3,0,4.4-0.4,6.2-1.3c1.8-0.9,3.3-2,4.5-3.5c1.2-1.4,2.1-3.1,2.7-5
		C-656.2,413.9-655.9,412-655.9,410z"/>
</g>
<g>
	<path style="fill:#223042;" d="M-1853.9,117.4h-14.8l-8.8-27.9h-0.2l-8.6,27.9h-14.9l-15.5-44.8h15.9l7.7,28.3h0.3l8-28.3h14.8
		l8.3,28.3h0.2l7.8-28.3h15.3L-1853.9,117.4z"/>
	<path style="fill:#223042;" d="M-1785,94.8c0,3.7-0.7,7-2,9.9c-1.3,3-3.1,5.5-5.4,7.6c-2.3,2.1-4.9,3.7-7.9,4.8
		c-3,1.1-6.2,1.7-9.6,1.7c-3.4,0-6.6-0.6-9.6-1.7c-3-1.1-5.7-2.7-7.9-4.8s-4-4.6-5.4-7.6c-1.3-3-2-6.3-2-9.9c0-3.7,0.7-7,2-9.9
		c1.3-2.9,3.1-5.4,5.4-7.5c2.3-2,4.9-3.6,7.9-4.7c3-1.1,6.2-1.6,9.6-1.6c3.4,0,6.6,0.5,9.6,1.6c3,1.1,5.6,2.6,7.9,4.7
		c2.3,2,4.1,4.5,5.4,7.5C-1785.7,87.9-1785,91.2-1785,94.8z M-1799.3,94.8c0-1.4-0.2-2.8-0.7-4.2c-0.5-1.4-1.2-2.6-2.1-3.6
		c-0.9-1-2-1.9-3.3-2.6c-1.3-0.7-2.9-1-4.6-1c-1.7,0-3.3,0.3-4.6,1c-1.3,0.7-2.4,1.5-3.3,2.6c-0.9,1.1-1.5,2.3-2,3.6
		c-0.5,1.4-0.7,2.8-0.7,4.2s0.2,2.9,0.7,4.2c0.4,1.4,1.1,2.6,2,3.7c0.9,1.1,2,2,3.3,2.7c1.3,0.7,2.8,1,4.6,1c1.7,0,3.3-0.3,4.6-1
		c1.3-0.7,2.4-1.5,3.3-2.7c0.9-1.1,1.6-2.4,2-3.7C-1799.5,97.7-1799.3,96.3-1799.3,94.8z"/>
	<path style="fill:#223042;" d="M-1728.2,94.8c0,3.7-0.7,7-2,9.9c-1.3,3-3.1,5.5-5.4,7.6c-2.3,2.1-4.9,3.7-7.9,4.8
		c-3,1.1-6.2,1.7-9.6,1.7c-3.4,0-6.6-0.6-9.6-1.7c-3-1.1-5.7-2.7-7.9-4.8s-4-4.6-5.4-7.6c-1.3-3-2-6.3-2-9.9c0-3.7,0.7-7,2-9.9
		c1.3-2.9,3.1-5.4,5.4-7.5c2.3-2,4.9-3.6,7.9-4.7c3-1.1,6.2-1.6,9.6-1.6c3.4,0,6.6,0.5,9.6,1.6c3,1.1,5.6,2.6,7.9,4.7
		c2.3,2,4.1,4.5,5.4,7.5C-1728.8,87.9-1728.2,91.2-1728.2,94.8z M-1742.4,94.8c0-1.4-0.2-2.8-0.7-4.2c-0.5-1.4-1.2-2.6-2.1-3.6
		c-0.9-1-2-1.9-3.3-2.6c-1.3-0.7-2.9-1-4.6-1s-3.3,0.3-4.6,1c-1.3,0.7-2.4,1.5-3.3,2.6c-0.9,1.1-1.5,2.3-2,3.6
		c-0.5,1.4-0.7,2.8-0.7,4.2s0.2,2.9,0.7,4.2c0.5,1.4,1.1,2.6,2,3.7c0.9,1.1,2,2,3.3,2.7c1.3,0.7,2.8,1,4.6,1c1.7,0,3.3-0.3,4.6-1
		c1.3-0.7,2.4-1.5,3.3-2.7c0.9-1.1,1.6-2.4,2-3.7C-1742.6,97.7-1742.4,96.3-1742.4,94.8z"/>
	<path style="fill:#1BC489;" d="M-1687.4,85.6c-0.9-1.4-2.3-2.5-4-3.5c-1.8-0.9-3.7-1.4-5.8-1.4c-2.2,0-4.2,0.4-5.9,1.3
		c-1.7,0.8-3.2,2-4.4,3.4c-1.2,1.4-2.1,3-2.7,4.9c-0.6,1.9-0.9,3.8-0.9,5.9c0,2,0.3,4,0.9,5.9c0.6,1.9,1.5,3.5,2.7,4.9
		c1.2,1.4,2.7,2.5,4.4,3.4c1.7,0.8,3.7,1.3,5.9,1.3c2.2,0,4.1-0.4,5.9-1.3c1.8-0.8,3.2-2,4.4-3.4l5.7,5.1c-1.8,2.1-4,3.7-6.8,4.9
		s-5.8,1.8-9.2,1.8c-3.3,0-6.3-0.5-9.1-1.6c-2.8-1.1-5.2-2.6-7.2-4.5c-2-1.9-3.6-4.3-4.8-7.1c-1.2-2.8-1.8-5.9-1.8-9.3
		c0-3.4,0.6-6.4,1.7-9.2c1.1-2.8,2.7-5.1,4.8-7.1c2-2,4.5-3.5,7.2-4.6s5.8-1.6,9-1.6c3,0,6,0.6,9,1.8c3,1.2,5.3,2.9,7.1,5.2
		L-1687.4,85.6z"/>
	<path style="fill:#1BC489;" d="M-1664.2,117.4h-8.5v-68h8.5V117.4z"/>
	<path style="fill:#1BC489;" d="M-1622.9,89.8c0-3.2-1-5.5-2.9-7.1c-1.9-1.5-4.5-2.3-7.7-2.3c-2.4,0-4.7,0.5-6.8,1.4
		c-2.1,0.9-3.9,2.1-5.4,3.6l-4.5-5.4c2.1-2,4.7-3.5,7.7-4.7c3-1.1,6.3-1.7,9.8-1.7c3.1,0,5.7,0.4,8,1.3c2.3,0.9,4.1,2.1,5.5,3.6
		c1.4,1.5,2.5,3.3,3.2,5.3c0.7,2,1.1,4.2,1.1,6.6V109c0,1.4,0,3,0.1,4.5c0.1,1.6,0.3,2.9,0.5,3.9h-7.7c-0.5-2-0.7-4.1-0.7-6.1h-0.3
		c-1.6,2.3-3.5,4.1-5.9,5.3c-2.4,1.3-5.2,1.9-8.4,1.9c-1.7,0-3.4-0.2-5.3-0.7c-1.8-0.4-3.5-1.2-5-2.2c-1.5-1-2.7-2.4-3.7-4.1
		c-1-1.7-1.5-3.7-1.5-6.2c0-3.2,0.9-5.8,2.6-7.7c1.7-1.9,4-3.3,6.8-4.3c2.8-1,6-1.6,9.5-1.9c3.5-0.3,7.1-0.5,10.7-0.5V89.8z
		 M-1624.9,97.1c-2.1,0-4.3,0.1-6.5,0.3c-2.3,0.2-4.3,0.5-6.1,1.1c-1.8,0.5-3.3,1.4-4.5,2.4c-1.2,1.1-1.8,2.5-1.8,4.3
		c0,1.3,0.3,2.3,0.8,3.2c0.5,0.8,1.2,1.5,2,2.1c0.8,0.5,1.8,0.9,2.8,1.1c1,0.2,2.1,0.3,3.1,0.3c4,0,7-1.2,9.1-3.6
		c2.1-2.4,3.2-5.4,3.2-9v-2.3H-1624.9z"/>
	<path style="fill:#1BC489;" d="M-1592.2,139h-8.5V74.8h8.3v6.7h0.3c1.4-2.3,3.4-4.2,6.1-5.6c2.7-1.5,5.8-2.2,9.3-2.2
		c3.2,0,6.1,0.6,8.7,1.7c2.6,1.1,4.8,2.7,6.7,4.8c1.9,2,3.3,4.4,4.4,7.2c1,2.7,1.5,5.7,1.5,8.8c0,3.1-0.5,6.1-1.5,8.8
		c-1,2.8-2.5,5.2-4.3,7.2c-1.9,2-4.1,3.6-6.7,4.8c-2.6,1.2-5.6,1.8-8.9,1.8c-3.1,0-5.9-0.7-8.6-2c-2.7-1.3-4.8-3.2-6.4-5.6h-0.3V139
		z M-1564.1,96c0-2-0.3-3.9-0.9-5.8c-0.6-1.9-1.5-3.5-2.7-4.9c-1.2-1.4-2.7-2.6-4.5-3.4c-1.8-0.8-3.8-1.3-6.2-1.3
		c-2.2,0-4.1,0.4-5.9,1.3c-1.8,0.8-3.3,2-4.5,3.4s-2.2,3.1-2.9,4.9c-0.7,1.9-1,3.8-1,5.9c0,2,0.3,4,1,5.9c0.7,1.9,1.7,3.5,2.9,4.9
		c1.3,1.4,2.8,2.5,4.5,3.4c1.8,0.8,3.7,1.3,5.9,1.3c2.3,0,4.4-0.4,6.2-1.3c1.8-0.9,3.3-2,4.5-3.5c1.2-1.4,2.1-3.1,2.7-5
		C-1564.4,99.9-1564.1,98-1564.1,96z"/>
</g>
<g>
	<path style="fill:#FFFFFF;" d="M-1853.9,117.4h-14.8l-8.8-27.9h-0.2l-8.6,27.9h-14.9l-15.5-44.8h15.9l7.7,28.3h0.3l8-28.3h14.8
		l8.3,28.3h0.2l7.8-28.3h15.3L-1853.9,117.4z"/>
	<path style="fill:#FFFFFF;" d="M-1785,94.8c0,3.7-0.7,7-2,9.9c-1.3,3-3.1,5.5-5.4,7.6c-2.3,2.1-4.9,3.7-7.9,4.8
		c-3,1.1-6.2,1.7-9.6,1.7c-3.4,0-6.6-0.6-9.6-1.7c-3-1.1-5.7-2.7-7.9-4.8s-4-4.6-5.4-7.6c-1.3-3-2-6.3-2-9.9c0-3.7,0.7-7,2-9.9
		c1.3-2.9,3.1-5.4,5.4-7.5c2.3-2,4.9-3.6,7.9-4.7c3-1.1,6.2-1.6,9.6-1.6c3.4,0,6.6,0.5,9.6,1.6c3,1.1,5.6,2.6,7.9,4.7
		c2.3,2,4.1,4.5,5.4,7.5C-1785.7,87.9-1785,91.2-1785,94.8z M-1799.3,94.8c0-1.4-0.2-2.8-0.7-4.2c-0.5-1.4-1.2-2.6-2.1-3.6
		c-0.9-1-2-1.9-3.3-2.6c-1.3-0.7-2.9-1-4.6-1c-1.7,0-3.3,0.3-4.6,1c-1.3,0.7-2.4,1.5-3.3,2.6c-0.9,1.1-1.5,2.3-2,3.6
		c-0.5,1.4-0.7,2.8-0.7,4.2s0.2,2.9,0.7,4.2c0.4,1.4,1.1,2.6,2,3.7c0.9,1.1,2,2,3.3,2.7c1.3,0.7,2.8,1,4.6,1c1.7,0,3.3-0.3,4.6-1
		c1.3-0.7,2.4-1.5,3.3-2.7c0.9-1.1,1.6-2.4,2-3.7C-1799.5,97.7-1799.3,96.3-1799.3,94.8z"/>
	<path style="fill:#FFFFFF;" d="M-1728.2,94.8c0,3.7-0.7,7-2,9.9c-1.3,3-3.1,5.5-5.4,7.6c-2.3,2.1-4.9,3.7-7.9,4.8
		c-3,1.1-6.2,1.7-9.6,1.7c-3.4,0-6.6-0.6-9.6-1.7c-3-1.1-5.7-2.7-7.9-4.8s-4-4.6-5.4-7.6c-1.3-3-2-6.3-2-9.9c0-3.7,0.7-7,2-9.9
		c1.3-2.9,3.1-5.4,5.4-7.5c2.3-2,4.9-3.6,7.9-4.7c3-1.1,6.2-1.6,9.6-1.6c3.4,0,6.6,0.5,9.6,1.6c3,1.1,5.6,2.6,7.9,4.7
		c2.3,2,4.1,4.5,5.4,7.5C-1728.8,87.9-1728.2,91.2-1728.2,94.8z M-1742.4,94.8c0-1.4-0.2-2.8-0.7-4.2c-0.5-1.4-1.2-2.6-2.1-3.6
		c-0.9-1-2-1.9-3.3-2.6c-1.3-0.7-2.9-1-4.6-1s-3.3,0.3-4.6,1c-1.3,0.7-2.4,1.5-3.3,2.6c-0.9,1.1-1.5,2.3-2,3.6
		c-0.5,1.4-0.7,2.8-0.7,4.2s0.2,2.9,0.7,4.2c0.5,1.4,1.1,2.6,2,3.7c0.9,1.1,2,2,3.3,2.7c1.3,0.7,2.8,1,4.6,1c1.7,0,3.3-0.3,4.6-1
		c1.3-0.7,2.4-1.5,3.3-2.7c0.9-1.1,1.6-2.4,2-3.7C-1742.6,97.7-1742.4,96.3-1742.4,94.8z"/>
	<path style="fill:#1BC489;" d="M-1687.4,85.6c-0.9-1.4-2.3-2.5-4-3.5c-1.8-0.9-3.7-1.4-5.8-1.4c-2.2,0-4.2,0.4-5.9,1.3
		c-1.7,0.8-3.2,2-4.4,3.4c-1.2,1.4-2.1,3-2.7,4.9c-0.6,1.9-0.9,3.8-0.9,5.9c0,2,0.3,4,0.9,5.9c0.6,1.9,1.5,3.5,2.7,4.9
		c1.2,1.4,2.7,2.5,4.4,3.4c1.7,0.8,3.7,1.3,5.9,1.3c2.2,0,4.1-0.4,5.9-1.3c1.8-0.8,3.2-2,4.4-3.4l5.7,5.1c-1.8,2.1-4,3.7-6.8,4.9
		s-5.8,1.8-9.2,1.8c-3.3,0-6.3-0.5-9.1-1.6c-2.8-1.1-5.2-2.6-7.2-4.5c-2-1.9-3.6-4.3-4.8-7.1c-1.2-2.8-1.8-5.9-1.8-9.3
		c0-3.4,0.6-6.4,1.7-9.2c1.1-2.8,2.7-5.1,4.8-7.1c2-2,4.5-3.5,7.2-4.6s5.8-1.6,9-1.6c3,0,6,0.6,9,1.8c3,1.2,5.3,2.9,7.1,5.2
		L-1687.4,85.6z"/>
	<path style="fill:#1BC489;" d="M-1664.2,117.4h-8.5v-68h8.5V117.4z"/>
	<path style="fill:#1BC489;" d="M-1622.9,89.8c0-3.2-1-5.5-2.9-7.1c-1.9-1.5-4.5-2.3-7.7-2.3c-2.4,0-4.7,0.5-6.8,1.4
		c-2.1,0.9-3.9,2.1-5.4,3.6l-4.5-5.4c2.1-2,4.7-3.5,7.7-4.7c3-1.1,6.3-1.7,9.8-1.7c3.1,0,5.7,0.4,8,1.3c2.3,0.9,4.1,2.1,5.5,3.6
		c1.4,1.5,2.5,3.3,3.2,5.3c0.7,2,1.1,4.2,1.1,6.6V109c0,1.4,0,3,0.1,4.5c0.1,1.6,0.3,2.9,0.5,3.9h-7.7c-0.5-2-0.7-4.1-0.7-6.1h-0.3
		c-1.6,2.3-3.5,4.1-5.9,5.3c-2.4,1.3-5.2,1.9-8.4,1.9c-1.7,0-3.4-0.2-5.3-0.7c-1.8-0.4-3.5-1.2-5-2.2c-1.5-1-2.7-2.4-3.7-4.1
		c-1-1.7-1.5-3.7-1.5-6.2c0-3.2,0.9-5.8,2.6-7.7c1.7-1.9,4-3.3,6.8-4.3c2.8-1,6-1.6,9.5-1.9c3.5-0.3,7.1-0.5,10.7-0.5V89.8z
		 M-1624.9,97.1c-2.1,0-4.3,0.1-6.5,0.3c-2.3,0.2-4.3,0.5-6.1,1.1c-1.8,0.5-3.3,1.4-4.5,2.4c-1.2,1.1-1.8,2.5-1.8,4.3
		c0,1.3,0.3,2.3,0.8,3.2c0.5,0.8,1.2,1.5,2,2.1c0.8,0.5,1.8,0.9,2.8,1.1c1,0.2,2.1,0.3,3.1,0.3c4,0,7-1.2,9.1-3.6
		c2.1-2.4,3.2-5.4,3.2-9v-2.3H-1624.9z"/>
	<path style="fill:#1BC489;" d="M-1592.2,139h-8.5V74.8h8.3v6.7h0.3c1.4-2.3,3.4-4.2,6.1-5.6c2.7-1.5,5.8-2.2,9.3-2.2
		c3.2,0,6.1,0.6,8.7,1.7c2.6,1.1,4.8,2.7,6.7,4.8c1.9,2,3.3,4.4,4.4,7.2c1,2.7,1.5,5.7,1.5,8.8c0,3.1-0.5,6.1-1.5,8.8
		c-1,2.8-2.5,5.2-4.3,7.2c-1.9,2-4.1,3.6-6.7,4.8c-2.6,1.2-5.6,1.8-8.9,1.8c-3.1,0-5.9-0.7-8.6-2c-2.7-1.3-4.8-3.2-6.4-5.6h-0.3V139
		z M-1564.1,96c0-2-0.3-3.9-0.9-5.8c-0.6-1.9-1.5-3.5-2.7-4.9c-1.2-1.4-2.7-2.6-4.5-3.4c-1.8-0.8-3.8-1.3-6.2-1.3
		c-2.2,0-4.1,0.4-5.9,1.3c-1.8,0.8-3.3,2-4.5,3.4s-2.2,3.1-2.9,4.9c-0.7,1.9-1,3.8-1,5.9c0,2,0.3,4,1,5.9c0.7,1.9,1.7,3.5,2.9,4.9
		c1.3,1.4,2.8,2.5,4.5,3.4c1.8,0.8,3.7,1.3,5.9,1.3c2.3,0,4.4-0.4,6.2-1.3c1.8-0.9,3.3-2,4.5-3.5c1.2-1.4,2.1-3.1,2.7-5
		C-1564.4,99.9-1564.1,98-1564.1,96z"/>
</g>
<g>
	<path style="fill:#223042;" d="M-2667.1,117.4h-14.8l-8.8-27.9h-0.2l-8.6,27.9h-14.9l-15.5-44.8h15.9l7.7,28.3h0.3l8-28.3h14.8
		l8.3,28.3h0.2l7.8-28.3h15.3L-2667.1,117.4z"/>
	<path style="fill:#223042;" d="M-2598.3,94.8c0,3.7-0.7,7-2,9.9c-1.3,3-3.1,5.5-5.4,7.6c-2.3,2.1-4.9,3.7-7.9,4.8
		c-3,1.1-6.2,1.7-9.6,1.7c-3.4,0-6.6-0.6-9.6-1.7c-3-1.1-5.7-2.7-7.9-4.8s-4-4.6-5.4-7.6c-1.3-3-2-6.3-2-9.9c0-3.7,0.7-7,2-9.9
		c1.3-2.9,3.1-5.4,5.4-7.5c2.3-2,4.9-3.6,7.9-4.7c3-1.1,6.2-1.6,9.6-1.6c3.4,0,6.6,0.5,9.6,1.6c3,1.1,5.6,2.6,7.9,4.7
		c2.3,2,4.1,4.5,5.4,7.5C-2598.9,87.9-2598.3,91.2-2598.3,94.8z M-2612.5,94.8c0-1.4-0.2-2.8-0.7-4.2c-0.5-1.4-1.2-2.6-2.1-3.6
		c-0.9-1-2-1.9-3.3-2.6c-1.3-0.7-2.9-1-4.6-1c-1.7,0-3.3,0.3-4.6,1c-1.3,0.7-2.4,1.5-3.3,2.6c-0.9,1.1-1.5,2.3-2,3.6
		c-0.5,1.4-0.7,2.8-0.7,4.2s0.2,2.9,0.7,4.2c0.4,1.4,1.1,2.6,2,3.7c0.9,1.1,2,2,3.3,2.7c1.3,0.7,2.8,1,4.6,1c1.7,0,3.3-0.3,4.6-1
		c1.3-0.7,2.4-1.5,3.3-2.7c0.9-1.1,1.6-2.4,2-3.7C-2612.7,97.7-2612.5,96.3-2612.5,94.8z"/>
	<path style="fill:#223042;" d="M-2541.4,94.8c0,3.7-0.7,7-2,9.9c-1.3,3-3.1,5.5-5.4,7.6c-2.3,2.1-4.9,3.7-7.9,4.8
		c-3,1.1-6.2,1.7-9.6,1.7c-3.4,0-6.6-0.6-9.6-1.7c-3-1.1-5.7-2.7-7.9-4.8s-4-4.6-5.4-7.6c-1.3-3-2-6.3-2-9.9c0-3.7,0.7-7,2-9.9
		c1.3-2.9,3.1-5.4,5.4-7.5c2.3-2,4.9-3.6,7.9-4.7c3-1.1,6.2-1.6,9.6-1.6c3.4,0,6.6,0.5,9.6,1.6c3,1.1,5.6,2.6,7.9,4.7
		c2.3,2,4.1,4.5,5.4,7.5C-2542,87.9-2541.4,91.2-2541.4,94.8z M-2555.6,94.8c0-1.4-0.2-2.8-0.7-4.2c-0.5-1.4-1.2-2.6-2.1-3.6
		c-0.9-1-2-1.9-3.3-2.6c-1.3-0.7-2.9-1-4.6-1s-3.3,0.3-4.6,1c-1.3,0.7-2.4,1.5-3.3,2.6c-0.9,1.1-1.5,2.3-2,3.6
		c-0.5,1.4-0.7,2.8-0.7,4.2s0.2,2.9,0.7,4.2c0.5,1.4,1.1,2.6,2,3.7c0.9,1.1,2,2,3.3,2.7c1.3,0.7,2.8,1,4.6,1c1.7,0,3.3-0.3,4.6-1
		c1.3-0.7,2.4-1.5,3.3-2.7c0.9-1.1,1.6-2.4,2-3.7C-2555.8,97.7-2555.6,96.3-2555.6,94.8z"/>
	<path style="fill:#1BC489;" d="M-2500.6,85.6c-0.9-1.4-2.3-2.5-4-3.5c-1.8-0.9-3.7-1.4-5.8-1.4c-2.2,0-4.2,0.4-5.9,1.3
		c-1.7,0.8-3.2,2-4.4,3.4c-1.2,1.4-2.1,3-2.7,4.9c-0.6,1.9-0.9,3.8-0.9,5.9c0,2,0.3,4,0.9,5.9c0.6,1.9,1.5,3.5,2.7,4.9
		c1.2,1.4,2.7,2.5,4.4,3.4c1.7,0.8,3.7,1.3,5.9,1.3c2.2,0,4.1-0.4,5.9-1.3c1.8-0.8,3.2-2,4.4-3.4l5.7,5.1c-1.8,2.1-4,3.7-6.8,4.9
		s-5.8,1.8-9.2,1.8c-3.3,0-6.3-0.5-9.1-1.6c-2.8-1.1-5.2-2.6-7.2-4.5c-2-1.9-3.6-4.3-4.8-7.1c-1.2-2.8-1.8-5.9-1.8-9.3
		c0-3.4,0.6-6.4,1.7-9.2c1.1-2.8,2.7-5.1,4.8-7.1c2-2,4.5-3.5,7.2-4.6s5.8-1.6,9-1.6c3,0,6,0.6,9,1.8c3,1.2,5.3,2.9,7.1,5.2
		L-2500.6,85.6z"/>
	<path style="fill:#1BC489;" d="M-2477.4,117.4h-8.5v-68h8.5V117.4z"/>
	<path style="fill:#1BC489;" d="M-2436.1,89.8c0-3.2-1-5.5-2.9-7.1c-1.9-1.5-4.5-2.3-7.7-2.3c-2.4,0-4.7,0.5-6.8,1.4
		c-2.1,0.9-3.9,2.1-5.4,3.6l-4.5-5.4c2.1-2,4.7-3.5,7.7-4.7c3-1.1,6.3-1.7,9.8-1.7c3.1,0,5.7,0.4,8,1.3c2.3,0.9,4.1,2.1,5.5,3.6
		c1.4,1.5,2.5,3.3,3.2,5.3c0.7,2,1.1,4.2,1.1,6.6V109c0,1.4,0,3,0.1,4.5c0.1,1.6,0.3,2.9,0.5,3.9h-7.7c-0.5-2-0.7-4.1-0.7-6.1h-0.3
		c-1.6,2.3-3.5,4.1-5.9,5.3c-2.4,1.3-5.2,1.9-8.4,1.9c-1.7,0-3.4-0.2-5.3-0.7c-1.8-0.4-3.5-1.2-5-2.2c-1.5-1-2.7-2.4-3.7-4.1
		c-1-1.7-1.5-3.7-1.5-6.2c0-3.2,0.9-5.8,2.6-7.7c1.7-1.9,4-3.3,6.8-4.3c2.8-1,6-1.6,9.5-1.9c3.5-0.3,7.1-0.5,10.7-0.5V89.8z
		 M-2438.1,97.1c-2.1,0-4.3,0.1-6.5,0.3c-2.3,0.2-4.3,0.5-6.1,1.1c-1.8,0.5-3.3,1.4-4.5,2.4c-1.2,1.1-1.8,2.5-1.8,4.3
		c0,1.3,0.3,2.3,0.8,3.2c0.5,0.8,1.2,1.5,2,2.1c0.8,0.5,1.8,0.9,2.8,1.1c1,0.2,2.1,0.3,3.1,0.3c4,0,7-1.2,9.1-3.6
		c2.1-2.4,3.2-5.4,3.2-9v-2.3H-2438.1z"/>
	<path style="fill:#1BC489;" d="M-2405.4,139h-8.5V74.8h8.3v6.7h0.3c1.4-2.3,3.4-4.2,6.1-5.6c2.7-1.5,5.8-2.2,9.3-2.2
		c3.2,0,6.1,0.6,8.7,1.7c2.6,1.1,4.8,2.7,6.7,4.8c1.9,2,3.3,4.4,4.4,7.2c1,2.7,1.5,5.7,1.5,8.8c0,3.1-0.5,6.1-1.5,8.8
		c-1,2.8-2.5,5.2-4.3,7.2c-1.9,2-4.1,3.6-6.7,4.8c-2.6,1.2-5.6,1.8-8.9,1.8c-3.1,0-5.9-0.7-8.6-2c-2.7-1.3-4.8-3.2-6.4-5.6h-0.3V139
		z M-2377.3,96c0-2-0.3-3.9-0.9-5.8c-0.6-1.9-1.5-3.5-2.7-4.9c-1.2-1.4-2.7-2.6-4.5-3.4c-1.8-0.8-3.8-1.3-6.2-1.3
		c-2.2,0-4.1,0.4-5.9,1.3c-1.8,0.8-3.3,2-4.5,3.4s-2.2,3.1-2.9,4.9c-0.7,1.9-1,3.8-1,5.9c0,2,0.3,4,1,5.9c0.7,1.9,1.7,3.5,2.9,4.9
		c1.3,1.4,2.8,2.5,4.5,3.4c1.8,0.8,3.7,1.3,5.9,1.3c2.3,0,4.4-0.4,6.2-1.3c1.8-0.9,3.3-2,4.5-3.5c1.2-1.4,2.1-3.1,2.7-5
		C-2377.6,99.9-2377.3,98-2377.3,96z"/>
</g>
<g>
	<path style="fill:#223042;" d="M-2250.6,1097h-42.1l-25-79.1h-0.5l-24.5,79.1h-42.1l-43.9-127h45.2l21.9,80.4h0.8l22.7-80.4h42.1
		l23.5,80.4h0.5l22.2-80.4h43.4L-2250.6,1097z"/>
	<path style="fill:#223042;" d="M-2055.5,1033c0,10.4-1.9,19.8-5.6,28.2c-3.7,8.4-8.8,15.6-15.3,21.4c-6.5,5.9-13.9,10.4-22.4,13.6
		c-8.5,3.2-17.6,4.8-27.3,4.8c-9.5,0-18.6-1.6-27.2-4.8c-8.6-3.2-16.1-7.8-22.4-13.6c-6.4-5.9-11.4-13-15.2-21.4
		c-3.7-8.4-5.6-17.8-5.6-28.2c0-10.4,1.9-19.7,5.6-28.1c3.7-8.3,8.8-15.4,15.2-21.2c6.4-5.8,13.9-10.2,22.4-13.3
		c8.6-3.1,17.6-4.6,27.2-4.6c9.7,0,18.8,1.5,27.3,4.6c8.5,3.1,16,7.5,22.4,13.3c6.5,5.8,11.6,12.8,15.3,21.2
		C-2057.4,1013.3-2055.5,1022.6-2055.5,1033z M-2095.8,1033c0-4.1-0.7-8.1-2-12c-1.4-3.9-3.3-7.4-5.9-10.3c-2.6-3-5.7-5.4-9.4-7.3
		c-3.7-1.9-8.1-2.8-13-2.8c-4.9,0-9.3,0.9-13,2.8c-3.7,1.9-6.8,4.3-9.3,7.3c-2.5,3-4.3,6.4-5.6,10.3c-1.3,3.9-1.9,7.9-1.9,12
		c0,4.1,0.6,8.1,1.9,12c1.3,3.9,3.2,7.4,5.7,10.6c2.6,3.1,5.7,5.7,9.4,7.5c3.7,1.9,8.1,2.8,13,2.8c4.9,0,9.3-0.9,13-2.8
		c3.7-1.9,6.9-4.4,9.4-7.5c2.6-3.1,4.5-6.7,5.7-10.6C-2096.4,1041.1-2095.8,1037.1-2095.8,1033z"/>
	<path style="fill:#223042;" d="M-1894.3,1033c0,10.4-1.9,19.8-5.6,28.2c-3.7,8.4-8.8,15.6-15.3,21.4c-6.5,5.9-13.9,10.4-22.4,13.6
		c-8.5,3.2-17.6,4.8-27.3,4.8c-9.5,0-18.6-1.6-27.2-4.8c-8.6-3.2-16.1-7.8-22.4-13.6s-11.4-13-15.2-21.4c-3.7-8.4-5.6-17.8-5.6-28.2
		c0-10.4,1.9-19.7,5.6-28.1c3.7-8.3,8.8-15.4,15.2-21.2c6.4-5.8,13.9-10.2,22.4-13.3c8.6-3.1,17.6-4.6,27.2-4.6
		c9.7,0,18.8,1.5,27.3,4.6c8.5,3.1,16,7.5,22.4,13.3c6.5,5.8,11.6,12.8,15.3,21.2C-1896.1,1013.3-1894.3,1022.6-1894.3,1033z
		 M-1934.6,1033c0-4.1-0.7-8.1-2-12c-1.4-3.9-3.3-7.4-5.9-10.3c-2.5-3-5.7-5.4-9.4-7.3c-3.7-1.9-8.1-2.8-13-2.8s-9.3,0.9-13,2.8
		c-3.7,1.9-6.8,4.3-9.3,7.3c-2.5,3-4.3,6.4-5.6,10.3c-1.3,3.9-1.9,7.9-1.9,12c0,4.1,0.6,8.1,1.9,12c1.3,3.9,3.2,7.4,5.7,10.6
		c2.6,3.1,5.7,5.7,9.4,7.5c3.7,1.9,8.1,2.8,13,2.8c4.9,0,9.3-0.9,13-2.8c3.7-1.9,6.9-4.4,9.4-7.5c2.5-3.1,4.5-6.7,5.7-10.6
		C-1935.2,1041.1-1934.6,1037.1-1934.6,1033z"/>
	<path style="fill:#1BC489;" d="M-1778.7,1006.7c-2.6-3.9-6.4-7.2-11.5-9.8c-5.1-2.6-10.5-4-16.3-4c-6.3,0-11.9,1.2-16.7,3.6
		c-4.8,2.4-9,5.6-12.4,9.6c-3.4,4-6,8.6-7.8,13.9c-1.8,5.3-2.7,10.8-2.7,16.6c0,5.8,0.9,11.3,2.7,16.6c1.8,5.3,4.4,9.9,7.8,13.9
		c3.4,4,7.6,7.2,12.5,9.6c4.9,2.4,10.5,3.6,16.8,3.6c6.1,0,11.7-1.2,16.7-3.6c5-2.4,9.1-5.6,12.4-9.7l16.1,14.5
		c-5.1,6-11.5,10.6-19.1,13.9c-7.7,3.3-16.3,5-26,5c-9.4,0-18-1.5-25.9-4.6c-7.9-3.1-14.8-7.4-20.5-12.9c-5.8-5.5-10.3-12.2-13.6-20
		c-3.3-7.8-5-16.6-5-26.3c0-9.5,1.6-18.2,4.8-26c3.2-7.8,7.7-14.5,13.5-20.2c5.8-5.6,12.6-9.9,20.5-13c7.9-3.1,16.5-4.6,25.6-4.6
		c8.5,0,17,1.7,25.4,5.1c8.4,3.4,15.1,8.3,20,14.8L-1778.7,1006.7z"/>
	<path style="fill:#1BC489;" d="M-1712.9,1097h-24V904.2h24V1097z"/>
	<path style="fill:#1BC489;" d="M-1595.8,1018.7c0-9-2.7-15.7-8.2-20c-5.4-4.3-12.7-6.5-21.7-6.5c-6.8,0-13.2,1.3-19.3,4
		c-6,2.6-11.1,6-15.2,10.1l-12.8-15.3c6-5.6,13.2-10,21.8-13.3c8.6-3.2,17.8-4.8,27.7-4.8c8.7,0,16.2,1.2,22.6,3.7
		c6.4,2.5,11.6,5.8,15.7,10.1c4.1,4.3,7.1,9.3,9.2,15.1c2,5.8,3.1,12,3.1,18.6v52.8c0,4.1,0.1,8.4,0.4,12.9
		c0.3,4.5,0.7,8.2,1.4,11.1h-21.7c-1.4-5.8-2-11.6-2-17.3h-0.8c-4.4,6.5-10,11.5-16.7,15.1c-6.7,3.6-14.7,5.4-23.9,5.4
		c-4.8,0-9.7-0.6-14.9-1.9c-5.2-1.3-9.9-3.4-14.2-6.2c-4.3-2.9-7.8-6.7-10.6-11.5c-2.8-4.8-4.2-10.6-4.2-17.6
		c0-9.2,2.5-16.5,7.4-21.8c4.9-5.4,11.4-9.4,19.4-12.2c8-2.8,17-4.6,27-5.5c10-0.8,20.2-1.3,30.4-1.3V1018.7z M-1601.7,1039.4
		c-6,0-12.1,0.3-18.5,0.8c-6.4,0.5-12.2,1.5-17.3,3.1c-5.2,1.5-9.5,3.8-12.9,6.9c-3.4,3.1-5.1,7.1-5.1,12.2c0,3.6,0.7,6.5,2.2,8.9
		c1.4,2.4,3.4,4.3,5.7,5.9c2.4,1.5,5,2.6,7.9,3.2c2.9,0.6,5.9,0.9,8.9,0.9c11.2,0,19.9-3.4,25.9-10.1c6-6.7,9.1-15.2,9.1-25.4v-6.4
		H-1601.7z"/>
	<path style="fill:#1BC489;" d="M-1508.8,1158.3h-24V976.1h23.5V995h0.8c3.9-6.5,9.6-11.8,17.2-15.9c7.5-4.2,16.3-6.3,26.3-6.3
		c9,0,17.2,1.6,24.6,4.8c7.4,3.2,13.7,7.7,19.1,13.5c5.3,5.8,9.5,12.5,12.3,20.3c2.9,7.7,4.3,16,4.3,24.9c0,8.8-1.4,17.2-4.3,25
		c-2.9,7.8-7,14.6-12.2,20.4c-5.3,5.8-11.6,10.3-19.1,13.6c-7.5,3.3-15.9,5-25.2,5c-8.7,0-16.8-1.9-24.4-5.6
		c-7.6-3.7-13.7-9-18.1-15.8h-0.8V1158.3z M-1429.2,1036.3c0-5.6-0.9-11.1-2.6-16.3c-1.7-5.3-4.3-9.9-7.7-14
		c-3.4-4.1-7.6-7.3-12.6-9.7c-5-2.4-10.8-3.6-17.5-3.6c-6.1,0-11.7,1.2-16.7,3.6c-5,2.4-9.3,5.6-12.9,9.7s-6.3,8.8-8.3,14
		c-2,5.3-2.9,10.8-2.9,16.6c0,5.8,1,11.3,2.9,16.6c2,5.3,4.7,9.9,8.3,13.9c3.6,4,7.9,7.2,12.9,9.6c5,2.4,10.6,3.6,16.7,3.6
		c6.6,0,12.5-1.2,17.5-3.7c5-2.5,9.2-5.7,12.6-9.8c3.4-4.1,5.9-8.8,7.7-14C-1430.1,1047.4-1429.2,1041.9-1429.2,1036.3z"/>
</g>
<g>
	<path style="fill:#1BC489;" d="M-51.6,34.4h-14.8l-8.8-27.9h-0.2l-8.6,27.9h-14.9l-15.5-44.8h15.9l7.7,28.3h0.3l8-28.3h14.8
		l8.3,28.3h0.2l7.8-28.3H-36L-51.6,34.4z"/>
</g>
<g>
	<path style="fill:#1BC489;" d="M19.2,18.9h-4.5L12,10.3h-0.1l-2.6,8.5H4.7L0,5.1h4.9l2.4,8.7h0.1l2.5-8.7h4.5l2.5,8.7h0.1l2.4-8.7
		H24L19.2,18.9z"/>
</g>
</svg>
