<?xml version="1.0" encoding="UTF-8"?>
<svg width="1000px" height="1000px" viewBox="0 0 1000 1000" version="1.1" xmlns="http://www.w3.org/2000/svg" xmlns:xlink="http://www.w3.org/1999/xlink">
    <!-- Generator: Sketch 52.6 (67491) - http://www.bohemiancoding.com/sketch -->
    <title>Logo</title>
    <desc>Created with Sketch.</desc>
    <defs>
        <linearGradient x1="50%" y1="0%" x2="50%" y2="100%" id="linearGradient-1">
            <stop stop-color="#2DA3FF" offset="0%"></stop>
            <stop stop-color="#146AFF" offset="100%"></stop>
        </linearGradient>
    </defs>
    <g id="Logo" stroke="none" stroke-width="1" fill="none" fill-rule="evenodd">
        <g id="Group">
            <rect id="Rectangle" fill="url(#linearGradient-1)" x="0" y="0" width="1000" height="1000"></rect>
            <path d="M655.552919,382.59332 C659.35411,373.062166 664.770727,365.913907 671.802931,361.14833 C678.835135,356.382753 686.532432,354 694.895053,354 C707.438984,354 718.65233,358.288955 728.535428,366.866994 C738.418525,375.445033 743.36,385.833836 743.36,398.033713 C743.36,403.752406 741.839546,410.042873 738.798593,416.905305 L646.430106,615.342947 C642.248795,624.874101 635.881895,632.21298 627.329215,637.359804 C618.776534,642.506627 609.368727,645.08 599.10551,645.08 C588.842293,645.08 579.529514,642.506627 571.166893,637.359804 C562.804272,632.21298 556.532401,624.874101 552.35109,615.342947 L498.184385,494.679136 L447.438734,615.342947 C443.637543,624.874101 437.460699,632.21298 428.908019,637.359804 C420.355338,642.506627 410.947531,645.08 400.684314,645.08 C390.421098,645.08 381.01329,642.506627 372.46061,637.359804 C363.907929,632.21298 357.350972,624.874101 352.789543,615.342947 L260.991231,416.905305 C258.330397,411.186612 257,405.086765 257,398.60558 C257,386.024456 262.22656,375.445033 272.679836,366.866994 C283.133112,358.288955 294.8216,354 307.745651,354 C316.86851,354 325.135977,356.382753 332.5483,361.14833 C339.960623,365.913907 345.567296,373.252786 349.368488,383.165187 L403.535193,515.266326 L458.842251,383.737053 C462.643442,374.205899 468.5352,366.96233 476.517702,362.00613 C484.500204,357.049929 493.052756,354.571866 502.175615,354.571866 C511.298475,354.571866 519.851027,357.049929 527.833529,362.00613 C535.816031,366.96233 541.707789,374.205899 545.50898,383.737053 L602.526565,515.838193 L655.552919,382.59332 Z" id="w" fill="#FFFFFF"></path>
        </g>
    </g>
</svg>